<svg width="281" height="81" viewBox="0 0 281 81" fill="none" xmlns="http://www.w3.org/2000/svg">
<g clip-path="url(#clip0_1_170)">
<path d="M74.908 15.66L9.834 32.993C5.893 34.038 1.843 31.673 0.803999 27.711C-0.236001 23.749 2.117 19.677 6.057 18.631L71.132 1.24396C75.072 0.198964 79.122 2.56397 80.162 6.52597C81.147 10.543 78.849 14.56 74.908 15.66Z" fill="#21B5EA"/>
<path d="M47.871 34.8641L47.817 72.7201C47.817 76.7921 44.533 80.1481 40.428 80.1481C36.323 80.1481 33.039 76.8471 33.039 72.7201L33.094 34.8641C33.094 30.7921 36.378 27.4351 40.483 27.4351C44.588 27.4351 47.871 30.7371 47.871 34.8641Z" fill="#AFCA0B"/>
<path d="M38.511 41.962L6.001 33.048C2.061 31.948 -0.291998 27.876 0.802002 23.914C1.896 19.952 6.002 17.641 9.942 18.742L42.397 27.655C46.337 28.756 48.691 32.828 47.597 36.789C46.557 40.751 42.452 43.062 38.511 41.962ZM79.668 11.644L47.158 75.857C45.408 79.543 41.029 81.139 37.362 79.378C33.695 77.618 32.108 73.215 33.859 69.528L66.369 5.31598C68.12 1.62898 72.499 0.0329768 76.166 1.79398C79.833 3.55498 81.42 7.95698 79.668 11.644Z" fill="#FBFCFC" fill-opacity="0.57"/>
<path d="M15.033 23.9689C16.073 27.9309 13.72 32.0019 9.779 33.0479C5.839 34.0929 1.789 31.7279 0.748998 27.7659C-0.291002 23.8039 2.062 19.7319 6.002 18.6859C6.94194 18.4352 7.92224 18.3732 8.88627 18.5035C9.85031 18.6338 10.779 18.9538 11.6187 19.445C12.4583 19.9362 13.1924 20.5889 13.7784 21.3654C14.3644 22.1418 14.7909 23.0267 15.033 23.9689ZM80.162 6.5809C81.202 10.5429 78.849 14.6149 74.908 15.6609C70.967 16.7069 66.918 14.3399 65.878 10.3779C64.838 6.41589 67.191 2.3439 71.132 1.2989C75.073 0.253896 79.122 2.6189 80.162 6.5809ZM47.871 34.8639C47.871 38.9349 44.588 42.2919 40.483 42.2919C36.378 42.2919 33.094 38.9899 33.094 34.8639C33.094 30.7919 36.378 27.4349 40.483 27.4349C44.588 27.4349 47.871 30.7369 47.871 34.8639ZM47.652 70.8499C48.692 74.8109 46.339 78.8829 42.398 79.9279C38.458 80.9739 34.408 78.6079 33.368 74.6459C32.328 70.6839 34.681 66.6119 38.622 65.5669C42.562 64.5769 46.612 66.8879 47.652 70.8499Z" fill="#0053A0"/>
<mask id="mask0_1_170" style="mask-type:luminance" maskUnits="userSpaceOnUse" x="118" y="28" width="152" height="48">
<path d="M118.749 28.592H269.999V75.092H118.749V28.592Z" fill="white"/>
</mask>
<g mask="url(#mask0_1_170)">
<path d="M119.745 64.247L133.296 30.5245C133.582 29.915 133.982 29.6102 134.495 29.6102H138.53C139.105 29.6102 139.505 29.9149 139.73 30.5242L153.277 64.2467C153.438 64.5674 153.446 64.8162 153.3 64.993C153.157 65.1677 152.925 65.2549 152.605 65.2547H147.37C146.792 65.2547 146.391 64.9677 146.167 64.3915L143.862 58.6257H129.117L126.859 64.3915C126.632 64.9677 126.231 65.2547 125.656 65.2547H120.371C119.667 65.2547 119.458 64.9187 119.746 64.247M136.511 38.8327L131.374 52.4265H141.558L136.511 38.8327ZM149.722 35.087V30.5245C149.722 29.915 150.027 29.6102 150.636 29.6102H175.855C176.495 29.6102 176.816 29.9149 176.816 30.5242V35.0867C176.816 35.7274 176.495 36.0477 175.855 36.0477H166.632V64.2937C166.632 64.9344 166.328 65.2547 165.718 65.2547H160.531C159.923 65.2547 159.621 64.9345 159.621 64.2937V36.0477H150.636C150.027 36.0477 149.722 35.7276 149.722 35.087ZM181.956 64.1962V30.618C181.956 30.329 182.06 30.082 182.269 29.8757C182.477 29.6676 182.741 29.5634 183.062 29.5632H187.96C188.634 29.5632 188.988 29.915 189.019 30.6182V58.7195H203.046C203.335 58.7195 203.583 58.8162 203.792 59.0087C204 59.2017 204.104 59.4738 204.105 59.825V64.1962C204.105 64.871 203.751 65.2235 203.046 65.2547H183.015C182.309 65.2549 181.956 64.9021 181.956 64.1962ZM206.07 64.247L219.621 30.5245C219.907 29.915 220.306 29.6102 220.82 29.6102H224.855C225.43 29.6102 225.83 29.9149 226.054 30.5242L239.601 64.2467C239.762 64.5674 239.77 64.8162 239.625 64.993C239.481 65.1677 239.249 65.2549 238.929 65.2547H233.695C233.117 65.2547 232.716 64.9677 232.492 64.3915L230.187 58.6257H215.441L213.183 64.3915C212.957 64.9677 212.555 65.2547 211.98 65.2547H206.695C205.992 65.2547 205.783 64.9187 206.07 64.247M222.836 38.8327L217.699 52.4265H227.883L222.836 38.8327ZM241.907 59.825C241.651 59.5388 241.467 59.2432 241.356 58.9382C241.244 58.6337 241.348 58.3212 241.669 58.0007L244.887 54.829C245.142 54.6393 245.35 54.5443 245.512 54.544C245.671 54.5443 245.846 54.5924 246.04 54.6882C246.232 54.7822 246.408 54.9099 246.567 55.0712C247.561 56.0634 248.738 56.9996 250.098 57.8797C251.46 58.7602 253.053 59.2003 254.879 59.2C256.767 59.2003 258.247 58.7211 259.321 57.7625C260.393 56.8015 260.93 55.7292 260.93 54.5437C260.93 53.5185 260.545 52.6922 259.778 52.0672C259.009 51.4422 258.104 50.9539 257.063 50.6022C256.024 50.2507 255.072 49.9637 254.207 49.739C250.332 48.5856 247.378 47.169 245.344 45.489C243.31 43.8073 242.293 41.6042 242.294 38.8797C242.294 36.8952 242.838 35.159 243.926 33.6687C245.014 32.1795 246.536 31.0195 248.489 30.1882C250.442 29.3551 252.7 28.9384 255.262 28.9382C257.346 28.9382 259.372 29.4343 261.341 30.4265C263.309 31.419 264.998 32.6365 266.407 34.079C266.985 34.6865 266.969 35.3095 266.36 35.95L263.719 38.786C263.495 38.979 263.269 39.0753 263.043 39.075C262.853 39.075 262.662 39.0112 262.469 38.8837C262.276 38.7537 262.083 38.6248 261.891 38.497C261.38 38.0496 260.772 37.5691 260.067 37.0555C259.361 36.5428 258.583 36.1027 257.735 35.7352C256.888 35.3657 255.984 35.1808 255.024 35.1805C254.221 35.1806 253.388 35.277 252.524 35.4695C251.659 35.6628 250.937 36.0313 250.36 36.575C249.783 37.12 249.496 37.9365 249.496 39.0242C249.496 40.2431 250.145 41.165 251.442 41.79C252.741 42.413 254.415 43.0125 256.465 43.5907C258.642 44.2314 260.626 44.9918 262.418 45.872C264.212 46.7528 265.654 47.8895 266.743 49.282C267.834 50.6755 268.379 52.4932 268.379 54.7352C268.379 56.9442 267.746 58.8739 266.481 60.5242C265.215 62.1727 263.573 63.454 261.555 64.368C259.537 65.2793 257.36 65.7351 255.024 65.7352C252.557 65.7352 250.155 65.191 247.817 64.1025C245.478 63.0145 243.508 61.5886 241.907 59.825Z" fill="#FBFCFC"/>
</g>
<mask id="mask1_1_170" style="mask-type:luminance" maskUnits="userSpaceOnUse" x="107" y="0" width="175" height="25">
<path d="M107 0.343018H282V24.343H107V0.343018Z" fill="white"/>
</mask>
<g mask="url(#mask1_1_170)">
<path d="M108.28 1.08097H120.944C121.093 1.08097 121.224 1.12672 121.339 1.21772C121.453 1.30672 121.518 1.44213 121.534 1.62397V2.63147C121.534 2.7958 121.484 2.93647 121.386 3.05347C121.286 3.16872 121.14 3.22547 120.944 3.22547H115.698V18.8155C115.698 18.964 115.648 19.0915 115.55 19.198C115.45 19.3055 115.312 19.3582 115.132 19.3582H114.12C113.956 19.3582 113.82 19.3095 113.714 19.2097C113.606 19.1112 113.554 18.9795 113.554 18.8152V3.22547H108.28C107.902 3.22547 107.714 3.02847 107.714 2.63197V1.62397C107.713 1.2623 107.902 1.0813 108.28 1.08097ZM124.787 1.08097H136.634C136.994 1.08097 137.173 1.27047 137.173 1.64722V2.65897C137.173 2.8053 137.124 2.9368 137.025 3.05347C136.928 3.16847 136.789 3.2258 136.607 3.22547H126.361V8.66697H134.513C134.662 8.66697 134.789 8.71272 134.896 8.80347C135.003 8.89547 135.056 9.03797 135.056 9.23347V10.245C135.058 10.3883 135.009 10.5278 134.92 10.6395C134.83 10.7545 134.695 10.8118 134.513 10.8115H126.361V17.2137H136.709C137.086 17.2139 137.275 17.4118 137.275 17.8075V18.8152C137.275 19.1777 137.093 19.3582 136.732 19.3582H124.787C124.424 19.3582 124.243 19.1864 124.244 18.8427V1.64722C124.244 1.27047 124.424 1.08097 124.787 1.08097ZM154.147 2.68247C154.36 2.81297 154.467 2.9523 154.467 3.10047C154.467 3.16597 154.445 3.23997 154.404 3.32297C154.363 3.4043 154.326 3.46947 154.295 3.51847L153.776 4.33097C153.627 4.52897 153.488 4.62788 153.358 4.62772L153.17 4.56922C153.097 4.54355 153.012 4.49797 152.916 4.43247C152.307 3.9873 151.628 3.63838 150.881 3.38572C150.133 3.13055 149.382 3.00288 148.627 3.00272C147.543 3.00272 146.554 3.19622 145.658 3.58097C144.765 3.96697 143.994 4.5008 143.346 5.18247C142.701 5.85847 142.187 6.64783 141.83 7.51072C141.468 8.38072 141.287 9.29988 141.287 10.2682C141.287 11.2871 141.484 12.2363 141.877 13.116C142.264 13.9812 142.816 14.7627 143.502 15.417C144.182 16.0674 144.975 16.5888 145.842 16.956C146.708 17.3243 147.639 17.513 148.58 17.5107C149.202 17.5107 149.821 17.4286 150.436 17.2645C151.053 17.1008 151.723 16.7975 152.447 16.3545C152.624 16.2633 152.789 16.1518 152.94 16.0222C153.104 15.8817 153.242 15.8115 153.358 15.8115C153.506 15.8118 153.645 15.9107 153.776 16.1082L154.342 17.042C154.391 17.1566 154.416 17.2725 154.416 17.3895C154.416 17.5693 154.326 17.7086 154.147 17.8075C153.373 18.3648 152.514 18.8075 151.568 19.1357C150.625 19.4637 149.612 19.6277 148.529 19.6277C147.232 19.6277 146.018 19.3855 144.885 18.9012C143.752 18.417 142.754 17.7439 141.893 16.8817C141.03 16.0205 140.356 15.0222 139.869 13.8895C139.385 12.7568 139.143 11.542 139.143 10.245C139.143 8.9483 139.385 7.72955 139.869 6.58872C140.356 5.44605 141.03 4.44347 141.893 3.58097C142.754 2.7193 143.756 2.04613 144.897 1.56147C146.037 1.07697 147.256 0.834717 148.553 0.834717C149.589 0.834717 150.579 0.994883 151.522 1.31522C152.462 1.6329 153.347 2.0941 154.147 2.68247ZM170.425 8.71772V1.62397C170.425 1.47547 170.474 1.34847 170.574 1.24097C170.672 1.13447 170.804 1.08113 170.968 1.08097H171.98C172.125 1.08097 172.256 1.13047 172.371 1.22947C172.488 1.32897 172.547 1.45972 172.547 1.62397V18.8152C172.546 19.1775 172.357 19.3585 171.98 19.3582H170.968C170.606 19.3582 170.425 19.1772 170.425 18.8152V10.8115H159.539V18.8152C159.538 19.1775 159.342 19.3585 158.949 19.3582H157.964C157.602 19.3582 157.421 19.1772 157.422 18.8152V1.62397C157.421 1.4758 157.47 1.34813 157.566 1.24097C157.665 1.13447 157.797 1.08113 157.964 1.08097H158.972C159.12 1.08113 159.252 1.13447 159.367 1.24097C159.481 1.34813 159.538 1.4758 159.539 1.62397V8.71772H170.425ZM191.438 19.3582H190.278C190.098 19.3582 189.943 19.284 189.813 19.1357L178.578 4.38172V18.8152C178.578 19.1775 178.389 19.3585 178.012 19.3582H177.004C176.642 19.3582 176.461 19.1772 176.461 18.8152V1.64722C176.461 1.48355 176.509 1.34813 176.606 1.24097C176.704 1.13447 176.837 1.08113 177.004 1.08097H178.356C178.553 1.08097 178.709 1.16297 178.824 1.32697L189.887 15.7137V1.54972C189.934 1.23722 190.113 1.08097 190.426 1.08097H191.438C191.586 1.08097 191.721 1.13072 191.844 1.22947C191.966 1.32897 192.028 1.45972 192.028 1.62397V18.8152C192.028 19.1777 191.83 19.3582 191.438 19.3582ZM204.44 0.834717C205.739 0.834717 206.956 1.07697 208.089 1.56147C209.206 2.0361 210.222 2.72177 211.081 3.58097C211.942 4.44322 212.62 5.44597 213.112 6.58872C213.604 7.72938 213.85 8.95597 213.85 10.2685C213.85 11.5653 213.608 12.7801 213.124 13.913C212.639 15.0457 211.962 16.04 211.093 16.8935C210.223 17.7478 209.221 18.417 208.089 18.9012C206.956 19.3857 205.731 19.6277 204.417 19.6277C203.12 19.6277 201.905 19.3855 200.772 18.9012C199.639 18.417 198.641 17.7439 197.78 16.8817C196.918 16.0205 196.243 15.0222 195.757 13.8895C195.272 12.7568 195.03 11.542 195.03 10.245C195.03 8.9483 195.272 7.72955 195.757 6.58872C196.243 5.44605 196.918 4.44347 197.78 3.58097C198.641 2.71947 199.643 2.04597 200.784 1.56147C201.924 1.07697 203.143 0.834717 204.44 0.834717ZM197.175 10.218C197.174 11.2208 197.363 12.1661 197.741 13.0537C198.118 13.9395 198.636 14.716 199.292 15.382C199.95 16.046 200.722 16.5675 201.608 16.9445C202.496 17.3223 203.44 17.5111 204.44 17.511C205.442 17.5111 206.378 17.3223 207.249 16.9445C208.108 16.5743 208.889 16.044 209.55 15.382C210.216 14.7158 210.738 13.9397 211.116 13.0537C211.493 12.1662 211.682 11.2207 211.682 10.218C211.682 9.21797 211.493 8.28322 211.116 7.41297C210.746 6.55194 210.214 5.76972 209.55 5.10847C208.888 4.4469 208.108 3.91671 207.249 3.54597C206.379 3.16863 205.442 2.97988 204.44 2.97972C203.44 2.98005 202.496 3.1688 201.608 3.54597C200.722 3.9238 199.95 4.44463 199.292 5.10847C198.635 5.7727 198.109 6.55454 197.741 7.41322C197.363 8.28322 197.174 9.21813 197.175 10.218ZM216.954 18.8155V1.67047C216.954 1.27797 217.143 1.08047 217.521 1.08047H223.63C224.713 1.08047 225.682 1.34047 226.536 1.85797C227.39 2.37372 228.068 3.06797 228.568 3.93997C229.068 4.80997 229.318 5.76247 229.318 6.79547C229.318 7.79847 229.071 8.7308 228.579 9.59247C228.087 10.4547 227.417 11.149 226.572 11.6745C225.728 12.1978 224.772 12.4595 223.704 12.4595H219.072V18.8155C219.071 19.1778 218.89 19.3588 218.528 19.3585H217.497C217.135 19.3585 216.954 19.1775 216.954 18.8155ZM227.2 6.77222C227.2 6.13188 227.04 5.5408 226.72 4.99897C226.405 4.46342 225.965 4.0118 225.439 3.68247C224.904 3.34413 224.302 3.17488 223.63 3.17472H219.071V10.366H223.63C224.286 10.366 224.881 10.1981 225.415 9.86222C225.944 9.53162 226.387 9.08048 226.708 8.54572C227.036 8.00438 227.2 7.41322 227.2 6.77222ZM240.943 0.834717C242.242 0.834717 243.458 1.07697 244.592 1.56147C245.709 2.03613 246.725 2.7218 247.583 3.58097C248.445 4.44322 249.123 5.44597 249.615 6.58872C250.107 7.72938 250.353 8.95597 250.353 10.2685C250.353 11.5653 250.111 12.7801 249.626 13.913C249.142 15.0457 248.464 16.04 247.595 16.8935C246.725 17.7478 245.724 18.417 244.592 18.9012C243.458 19.3857 242.234 19.6279 240.919 19.6277C239.623 19.6277 238.408 19.3855 237.275 18.9012C236.142 18.417 235.145 17.7439 234.283 16.8817C233.421 16.0205 232.746 15.0222 232.26 13.8895C231.775 12.7568 231.533 11.542 231.533 10.245C231.533 8.9483 231.775 7.72955 232.26 6.58872C232.746 5.44605 233.42 4.44347 234.283 3.58097C235.144 2.7193 236.146 2.04613 237.287 1.56147C238.427 1.07697 239.646 0.834717 240.943 0.834717ZM233.677 10.218C233.677 11.2208 233.866 12.1661 234.244 13.0537C234.621 13.9397 235.138 14.7158 235.794 15.382C236.453 16.046 237.225 16.5675 238.111 16.9445C238.999 17.3223 239.943 17.5111 240.943 17.511C241.945 17.5111 242.881 17.3223 243.751 16.9445C244.611 16.5743 245.391 16.044 246.052 15.382C246.719 14.7158 247.241 13.9397 247.619 13.0537C247.996 12.1662 248.185 11.2207 248.185 10.218C248.185 9.21797 247.996 8.28322 247.619 7.41297C247.248 6.55194 246.717 5.76972 246.052 5.10847C245.391 4.4469 244.61 3.91671 243.751 3.54597C242.881 3.16863 241.945 2.97988 240.943 2.97972C239.943 2.98005 238.999 3.1688 238.111 3.54597C237.225 3.9238 236.453 4.44463 235.794 5.10847C235.138 5.7727 234.612 6.55454 234.244 7.41322C233.866 8.28322 233.677 9.21813 233.677 10.218ZM255.574 17.2645H264.469C264.614 17.2648 264.74 17.3143 264.848 17.413C264.954 17.5121 265.008 17.6515 265.008 17.831V18.8152C265.007 18.9639 264.958 19.0915 264.859 19.1982C264.763 19.3057 264.633 19.3582 264.469 19.3582H254C253.638 19.3582 253.457 19.1772 253.457 18.8152V1.62397C253.457 1.4758 253.505 1.34813 253.602 1.24097C253.7 1.13447 253.841 1.08113 254.024 1.08097H255.031C255.393 1.08097 255.574 1.26247 255.574 1.62397V17.2645ZM268.138 1.08097H279.986C280.345 1.08097 280.525 1.27047 280.525 1.64722V2.65897C280.524 2.8053 280.475 2.9368 280.376 3.05347C280.28 3.16847 280.14 3.2258 279.958 3.22547H269.712V8.66697H277.865C278.013 8.66697 278.141 8.71247 278.248 8.80347C278.354 8.89547 278.408 9.03797 278.408 9.23347V10.245C278.409 10.3884 278.361 10.5278 278.271 10.6395C278.182 10.7545 278.047 10.8118 277.865 10.8115H269.712V17.2137H280.06C280.438 17.2139 280.626 17.4118 280.626 17.8075V18.8152C280.626 19.1775 280.445 19.3585 280.083 19.3582H268.139C267.776 19.3582 267.595 19.1864 267.595 18.8427V1.64722C267.595 1.27047 267.776 1.08097 268.138 1.08097Z" fill="#FBFCFC"/>
</g>
</g>
<defs>
<clipPath id="clip0_1_170">
<rect width="281" height="81" fill="white"/>
</clipPath>
</defs>
</svg>
